<svg xmlns="http://www.w3.org/2000/svg" viewBox="0 0 1000 640" role="img" aria-label="Pharmaceutical research workflow with vial batches, quality control matrix and molecular structure diagram">
  <defs>
    <linearGradient id="pl-bg" x1="0" y1="0" x2="1" y2="1">
      <stop offset="0" stop-color="#ECEAF3"/>
      <stop offset="1" stop-color="#DCDAEA"/>
    </linearGradient>
  </defs>

  <rect width="1000" height="640" fill="url(#pl-bg)"/>
  <g stroke="#2A2755" stroke-opacity="0.09">
    <path d="M50 0v640M150 0v640M250 0v640M350 0v640M450 0v640M550 0v640M650 0v640M750 0v640M850 0v640M950 0v640"/>
  </g>

  <!-- vial row -->
  <g transform="translate(76,300)">
    <g stroke="#2A2755" stroke-opacity="0.5" stroke-width="2.2" fill="#FFFFFF" fill-opacity="0.6">
      <rect x="0" y="30" width="42" height="150" rx="12"/>
      <rect x="62" y="30" width="42" height="150" rx="12"/>
      <rect x="124" y="30" width="42" height="150" rx="12"/>
      <rect x="186" y="30" width="42" height="150" rx="12"/>
      <rect x="248" y="30" width="42" height="150" rx="12"/>
    </g>
    <g fill="#2A2755" fill-opacity="0.75">
      <rect x="4" y="18" width="34" height="16" rx="5"/>
      <rect x="66" y="18" width="34" height="16" rx="5"/>
      <rect x="128" y="18" width="34" height="16" rx="5"/>
      <rect x="190" y="18" width="34" height="16" rx="5"/>
      <rect x="252" y="18" width="34" height="16" rx="5"/>
    </g>
    <g fill="#0C7A5E">
      <rect x="3" y="106" width="36" height="72" rx="10" fill-opacity="0.85"/>
      <rect x="65" y="86" width="36" height="92" rx="10" fill-opacity="0.6"/>
      <rect x="127" y="122" width="36" height="56" rx="10" fill-opacity="0.9"/>
      <rect x="189" y="98" width="36" height="80" rx="10" fill-opacity="0.5"/>
      <rect x="251" y="134" width="36" height="44" rx="10" fill-opacity="0.75"/>
    </g>
    <path d="M-8 190h306" stroke="#2A2755" stroke-opacity="0.4" stroke-width="2"/>
    <text x="0" y="222" font-family="ui-monospace, SFMono-Regular, Menlo, monospace" font-size="13" letter-spacing="2.2" fill="#2A2755" fill-opacity="0.65">BATCH SAMPLES</text>
  </g>

  <!-- molecule -->
  <g transform="translate(536,86)">
    <g stroke="#2A2755" stroke-opacity="0.55" stroke-width="2" fill="none">
      <path d="M120 40 L 44 84 L 44 172 L 120 216 L 196 172 L 196 84 Z"/>
      <path d="M120 40 L 120 0"/>
      <path d="M196 84 L 268 44"/>
      <path d="M196 172 L 268 212"/>
      <path d="M44 172 L 0 212"/>
      <path d="M56 92 L 184 164" stroke-opacity="0.3"/>
    </g>
    <g fill="#0C7A5E">
      <circle cx="120" cy="40" r="11"/><circle cx="44" cy="84" r="11" fill-opacity="0.8"/><circle cx="44" cy="172" r="11" fill-opacity="0.65"/>
      <circle cx="120" cy="216" r="11" fill-opacity="0.85"/><circle cx="196" cy="172" r="11" fill-opacity="0.7"/><circle cx="196" cy="84" r="11" fill-opacity="0.9"/>
    </g>
    <g fill="#2A2755" fill-opacity="0.55">
      <circle cx="120" cy="0" r="7"/><circle cx="268" cy="44" r="7"/><circle cx="268" cy="212" r="7"/><circle cx="0" cy="212" r="7"/>
    </g>
  </g>

  <!-- QC matrix -->
  <g transform="translate(524,392)">
    <rect width="404" height="176" rx="10" fill="#FFFFFF" fill-opacity="0.9" stroke="#2A2755" stroke-opacity="0.22"/>
    <text x="24" y="38" font-family="ui-monospace, SFMono-Regular, Menlo, monospace" font-size="13" letter-spacing="2.2" fill="#0C7A5E">QUALITY CONTROL MATRIX</text>
    <g transform="translate(24,56)">
      <g fill="#2A2755">
        <rect x="0" y="0" width="28" height="28" rx="6" fill-opacity="0.14"/>
        <rect x="36" y="0" width="28" height="28" rx="6" fill="#0C7A5E" fill-opacity="0.8"/>
        <rect x="72" y="0" width="28" height="28" rx="6" fill-opacity="0.14"/>
        <rect x="108" y="0" width="28" height="28" rx="6" fill-opacity="0.28"/>
        <rect x="144" y="0" width="28" height="28" rx="6" fill="#0C7A5E" fill-opacity="0.55"/>
        <rect x="180" y="0" width="28" height="28" rx="6" fill-opacity="0.14"/>
        <rect x="216" y="0" width="28" height="28" rx="6" fill-opacity="0.2"/>
        <rect x="252" y="0" width="28" height="28" rx="6" fill="#0C7A5E" fill-opacity="0.35"/>
        <rect x="288" y="0" width="28" height="28" rx="6" fill-opacity="0.14"/>
        <rect x="324" y="0" width="28" height="28" rx="6" fill-opacity="0.24"/>

        <rect x="0" y="36" width="28" height="28" rx="6" fill="#0C7A5E" fill-opacity="0.6"/>
        <rect x="36" y="36" width="28" height="28" rx="6" fill-opacity="0.14"/>
        <rect x="72" y="36" width="28" height="28" rx="6" fill-opacity="0.3"/>
        <rect x="108" y="36" width="28" height="28" rx="6" fill="#0C7A5E" fill-opacity="0.9"/>
        <rect x="144" y="36" width="28" height="28" rx="6" fill-opacity="0.14"/>
        <rect x="180" y="36" width="28" height="28" rx="6" fill-opacity="0.22"/>
        <rect x="216" y="36" width="28" height="28" rx="6" fill="#0C7A5E" fill-opacity="0.45"/>
        <rect x="252" y="36" width="28" height="28" rx="6" fill-opacity="0.14"/>
        <rect x="288" y="36" width="28" height="28" rx="6" fill-opacity="0.32"/>
        <rect x="324" y="36" width="28" height="28" rx="6" fill="#0C7A5E" fill-opacity="0.25"/>

        <rect x="0" y="72" width="28" height="28" rx="6" fill-opacity="0.18"/>
        <rect x="36" y="72" width="28" height="28" rx="6" fill-opacity="0.26"/>
        <rect x="72" y="72" width="28" height="28" rx="6" fill="#0C7A5E" fill-opacity="0.7"/>
        <rect x="108" y="72" width="28" height="28" rx="6" fill-opacity="0.14"/>
        <rect x="144" y="72" width="28" height="28" rx="6" fill-opacity="0.3"/>
        <rect x="180" y="72" width="28" height="28" rx="6" fill="#0C7A5E" fill-opacity="0.4"/>
        <rect x="216" y="72" width="28" height="28" rx="6" fill-opacity="0.14"/>
        <rect x="252" y="72" width="28" height="28" rx="6" fill-opacity="0.24"/>
        <rect x="288" y="72" width="28" height="28" rx="6" fill="#0C7A5E" fill-opacity="0.5"/>
        <rect x="324" y="72" width="28" height="28" rx="6" fill-opacity="0.16"/>
      </g>
    </g>
  </g>
</svg>
